<svg width="167" height="226" viewBox="0 0 167 226" fill="none" xmlns="http://www.w3.org/2000/svg">
<path d="M64.08 223.12C63.568 223.12 63.092 223.048 62.652 222.904C62.22 222.752 61.844 222.54 61.524 222.268C61.204 221.996 60.96 221.68 60.792 221.32C60.728 221.192 60.724 221.076 60.78 220.972C60.844 220.86 60.948 220.784 61.092 220.744C61.204 220.712 61.312 220.724 61.416 220.78C61.528 220.836 61.612 220.92 61.668 221.032C61.788 221.264 61.964 221.472 62.196 221.656C62.428 221.84 62.704 221.984 63.024 222.088C63.344 222.184 63.696 222.232 64.08 222.232C64.504 222.232 64.88 222.164 65.208 222.028C65.536 221.884 65.792 221.68 65.976 221.416C66.168 221.144 66.264 220.816 66.264 220.432C66.264 219.944 66.084 219.524 65.724 219.172C65.364 218.82 64.8 218.596 64.032 218.5C63.096 218.388 62.364 218.1 61.836 217.636C61.308 217.164 61.044 216.588 61.044 215.908C61.044 215.42 61.172 214.996 61.428 214.636C61.692 214.276 62.052 214 62.508 213.808C62.964 213.608 63.488 213.508 64.08 213.508C64.52 213.508 64.92 213.58 65.28 213.724C65.64 213.86 65.952 214.044 66.216 214.276C66.488 214.5 66.708 214.748 66.876 215.02C66.956 215.148 66.98 215.272 66.948 215.392C66.924 215.512 66.856 215.604 66.744 215.668C66.624 215.724 66.5 215.732 66.372 215.692C66.252 215.652 66.16 215.576 66.096 215.464C65.976 215.28 65.824 215.108 65.64 214.948C65.464 214.78 65.248 214.648 64.992 214.552C64.736 214.456 64.428 214.404 64.068 214.396C63.436 214.396 62.928 214.532 62.544 214.804C62.16 215.068 61.968 215.456 61.968 215.968C61.968 216.24 62.04 216.492 62.184 216.724C62.328 216.948 62.564 217.144 62.892 217.312C63.228 217.472 63.676 217.592 64.236 217.672C65.236 217.816 65.976 218.124 66.456 218.596C66.944 219.06 67.188 219.668 67.188 220.42C67.188 220.852 67.108 221.236 66.948 221.572C66.796 221.908 66.576 222.192 66.288 222.424C66.008 222.648 65.676 222.82 65.292 222.94C64.916 223.06 64.512 223.12 64.08 223.12ZM70.8133 223C70.6773 223 70.5653 222.956 70.4773 222.868C70.3893 222.78 70.3453 222.668 70.3453 222.532V214.096C70.3453 213.96 70.3893 213.848 70.4773 213.76C70.5653 213.672 70.6773 213.628 70.8133 213.628C70.9493 213.628 71.0613 213.672 71.1493 213.76C71.2373 213.848 71.2813 213.96 71.2813 214.096V217.84H77.1373V214.096C77.1373 213.96 77.1813 213.848 77.2693 213.76C77.3573 213.672 77.4693 213.628 77.6053 213.628C77.7413 213.628 77.8533 213.672 77.9413 213.76C78.0293 213.848 78.0733 213.96 78.0733 214.096V222.532C78.0733 222.668 78.0293 222.78 77.9413 222.868C77.8533 222.956 77.7413 223 77.6053 223C77.4693 223 77.3573 222.956 77.2693 222.868C77.1813 222.78 77.1373 222.668 77.1373 222.532V218.68H71.2813V222.532C71.2813 222.668 71.2373 222.78 71.1493 222.868C71.0613 222.956 70.9493 223 70.8133 223ZM86.0023 223.12C85.3063 223.12 84.6663 223 84.0823 222.76C83.4983 222.52 82.9903 222.184 82.5583 221.752C82.1343 221.32 81.8023 220.812 81.5623 220.228C81.3303 219.644 81.2143 219.004 81.2143 218.308C81.2143 217.62 81.3303 216.984 81.5623 216.4C81.8023 215.816 82.1343 215.308 82.5583 214.876C82.9903 214.444 83.4983 214.108 84.0823 213.868C84.6663 213.628 85.3063 213.508 86.0023 213.508C86.6903 213.508 87.3263 213.628 87.9103 213.868C88.4943 214.108 89.0023 214.444 89.4343 214.876C89.8663 215.308 90.1983 215.816 90.4303 216.4C90.6703 216.984 90.7903 217.62 90.7903 218.308C90.7903 219.004 90.6703 219.644 90.4303 220.228C90.1983 220.812 89.8663 221.32 89.4343 221.752C89.0023 222.184 88.4943 222.52 87.9103 222.76C87.3263 223 86.6903 223.12 86.0023 223.12ZM86.0023 222.232C86.5543 222.232 87.0663 222.136 87.5383 221.944C88.0103 221.744 88.4183 221.468 88.7623 221.116C89.1143 220.756 89.3863 220.34 89.5783 219.868C89.7703 219.388 89.8663 218.868 89.8663 218.308C89.8663 217.756 89.7703 217.244 89.5783 216.772C89.3863 216.292 89.1143 215.876 88.7623 215.524C88.4183 215.164 88.0103 214.888 87.5383 214.696C87.0663 214.496 86.5543 214.396 86.0023 214.396C85.4423 214.396 84.9263 214.496 84.4543 214.696C83.9823 214.888 83.5703 215.164 83.2183 215.524C82.8743 215.876 82.6063 216.292 82.4143 216.772C82.2223 217.244 82.1263 217.756 82.1263 218.308C82.1263 218.868 82.2223 219.388 82.4143 219.868C82.6063 220.34 82.8743 220.756 83.2183 221.116C83.5703 221.468 83.9823 221.744 84.4543 221.944C84.9263 222.136 85.4423 222.232 86.0023 222.232ZM94.3891 223C94.2531 223 94.1411 222.956 94.0531 222.868C93.9651 222.78 93.9211 222.668 93.9211 222.532V214.096C93.9211 213.96 93.9651 213.848 94.0531 213.76C94.1411 213.672 94.2531 213.628 94.3891 213.628H96.7891C97.3811 213.628 97.9051 213.76 98.3611 214.024C98.8171 214.28 99.1731 214.636 99.4291 215.092C99.6851 215.548 99.8131 216.076 99.8131 216.676C99.8131 217.26 99.6851 217.78 99.4291 218.236C99.1731 218.684 98.8171 219.04 98.3611 219.304C97.9051 219.56 97.3811 219.688 96.7891 219.688H94.8571V222.532C94.8571 222.668 94.8131 222.78 94.7251 222.868C94.6371 222.956 94.5251 223 94.3891 223ZM94.8571 218.788H96.7891C97.1971 218.788 97.5611 218.7 97.8811 218.524C98.2011 218.34 98.4491 218.088 98.6251 217.768C98.8091 217.448 98.9011 217.084 98.9011 216.676C98.9011 216.252 98.8091 215.88 98.6251 215.56C98.4491 215.24 98.2011 214.988 97.8811 214.804C97.5611 214.62 97.1971 214.528 96.7891 214.528H94.8571V218.788Z" fill="#182450"/>
<path d="M165.5 81C165.5 124.864 128.831 160.5 83.5 160.5C38.1693 160.5 1.5 124.864 1.5 81C1.5 37.136 38.1693 1.5 83.5 1.5C128.831 1.5 165.5 37.136 165.5 81Z" stroke="#182450" stroke-width="3"/>
<path d="M79.3965 122.351C75.2898 117.529 68.4347 112.372 61.7957 109.109C55.0922 105.814 48.7248 103.984 41.4956 103.277C40.0702 103.139 38.8885 103.01 38.8696 102.991C38.8512 102.991 38.888 88.1092 38.9617 69.9616L39.0834 36.9671L40.3995 37.0961C48.4812 37.8977 57.5013 40.9514 64.3262 45.2074C70.2079 48.8747 76.2816 54.5378 80.1539 59.9641L81.1284 61.3297V92.6711C81.1284 109.908 81.0547 124.009 80.9663 124.006C80.8741 124.003 80.1729 123.26 79.4006 122.353L79.3965 122.351ZM86.0912 92.5919V61.1196L87.9732 58.605C90.376 55.3948 95.2091 50.5582 98.4048 48.1671C106.948 41.7733 116.215 38.1604 126.854 37.0731L128.203 36.9349V69.9754V103.017L126.638 103.164C111.824 104.543 98.9809 110.655 88.9355 121.106L86.0912 124.065V92.5928V92.5919ZM95.2696 121.926C101.084 116.471 108.781 112.136 116.513 109.961C120.559 108.823 125.82 108.029 129.313 108.029C131.144 108.029 132.16 107.632 132.733 106.692C133.164 105.982 133.169 105.677 133.17 78.9041L133.171 51.8307L133.98 51.9781C134.426 52.0702 135.689 52.4204 136.788 52.7705L138.786 53.4063V87.1942C138.786 105.778 138.712 120.982 138.621 120.982C138.528 120.982 137.193 120.696 135.651 120.346C129.557 118.973 124.537 118.502 117.946 118.679C109.95 118.901 103.736 120.015 96.3497 122.568L93.5422 123.538L95.2699 121.917L95.2696 121.926ZM70.6501 122.451C67.5825 121.352 62.5163 120.058 59.0962 119.499C54.446 118.744 51.2377 118.543 45.5383 118.67C39.8754 118.79 36.4501 119.186 31.7774 120.247C30.4708 120.542 29.1345 120.846 28.8079 120.91L28.2145 121.039L28.2155 87.161L28.2166 53.2819L30.7532 52.5448C32.1482 52.1393 33.4112 51.7616 33.5597 51.7155C33.7744 51.6233 33.8297 57.1427 33.8297 78.7585C33.8297 108.297 33.7652 106.65 35.0255 107.479C35.4641 107.764 36.3754 107.893 38.9778 108.05C49.3204 108.64 59.1342 112.112 67.146 118.021C68.8737 119.296 73.02 122.795 73.2577 123.18C73.4235 123.447 73.313 123.419 70.6508 122.461L70.6501 122.451Z" fill="#182450"/>
<path d="M12.9246 205C12.562 205 12.2446 204.875 11.9726 204.626C11.7233 204.354 11.5986 204.037 11.5986 203.674V179.772C11.5986 179.409 11.7233 179.103 11.9726 178.854C12.2446 178.582 12.562 178.446 12.9246 178.446C13.2873 178.446 13.5933 178.582 13.8426 178.854C14.1146 179.103 14.2506 179.409 14.2506 179.772V191.332L26.6606 178.922C26.842 178.741 27.012 178.616 27.1706 178.548C27.3293 178.48 27.5106 178.446 27.7146 178.446C28.1226 178.446 28.4286 178.571 28.6326 178.82C28.8366 179.069 28.9273 179.375 28.9046 179.738C28.9046 180.078 28.7686 180.407 28.4966 180.724L19.1806 190.04L28.5986 202.892C28.8026 203.187 28.882 203.504 28.8366 203.844C28.814 204.161 28.6893 204.433 28.4626 204.66C28.236 204.887 27.964 205 27.6466 205C27.148 205 26.774 204.807 26.5246 204.422L17.2766 191.91L14.2506 194.97V203.674C14.2506 204.037 14.1146 204.354 13.8426 204.626C13.5933 204.875 13.2873 205 12.9246 205ZM45.4039 205C45.0186 205 44.7013 204.875 44.4519 204.626C44.2026 204.377 44.0779 204.059 44.0779 203.674V179.772C44.0779 179.387 44.2026 179.069 44.4519 178.82C44.7013 178.571 45.0186 178.446 45.4039 178.446C45.8119 178.446 46.1519 178.605 46.4239 178.922L62.6759 200.274V179.772C62.6759 179.387 62.8006 179.069 63.0499 178.82C63.2993 178.571 63.6166 178.446 64.0019 178.446C64.3646 178.446 64.6706 178.571 64.9199 178.82C65.1919 179.069 65.3279 179.387 65.3279 179.772V203.674C65.3279 204.059 65.1919 204.377 64.9199 204.626C64.6706 204.875 64.3646 205 64.0019 205C63.8206 205 63.6393 204.966 63.4579 204.898C63.2766 204.83 63.1293 204.717 63.0159 204.558L46.7299 183.206V203.674C46.7299 204.059 46.5939 204.377 46.3219 204.626C46.0726 204.875 45.7666 205 45.4039 205ZM83.6606 205C83.2752 205 82.9579 204.875 82.7086 204.626C82.4592 204.377 82.3346 204.059 82.3346 203.674V179.772C82.3346 179.387 82.4592 179.069 82.7086 178.82C82.9579 178.571 83.2752 178.446 83.6606 178.446C84.0459 178.446 84.3632 178.571 84.6126 178.82C84.8619 179.069 84.9866 179.387 84.9866 179.772V203.674C84.9866 204.059 84.8619 204.377 84.6126 204.626C84.3632 204.875 84.0459 205 83.6606 205ZM113.931 205.34C112.095 205.34 110.373 204.989 108.763 204.286C107.177 203.583 105.771 202.609 104.547 201.362C103.346 200.093 102.405 198.642 101.725 197.01C101.045 195.355 100.705 193.587 100.705 191.706C100.705 189.847 101.034 188.102 101.691 186.47C102.371 184.815 103.312 183.365 104.513 182.118C105.737 180.871 107.143 179.897 108.729 179.194C110.339 178.469 112.073 178.106 113.931 178.106C115.563 178.106 117.048 178.344 118.385 178.82C119.723 179.296 121.015 180.055 122.261 181.098C122.465 181.257 122.579 181.449 122.601 181.676C122.647 181.88 122.624 182.084 122.533 182.288C122.443 182.469 122.307 182.605 122.125 182.696C122.08 182.877 121.967 183.013 121.785 183.104C121.604 183.195 121.389 183.229 121.139 183.206C120.913 183.183 120.686 183.081 120.459 182.9C119.575 182.129 118.612 181.563 117.569 181.2C116.527 180.815 115.314 180.622 113.931 180.622C112.458 180.622 111.075 180.917 109.783 181.506C108.514 182.095 107.392 182.9 106.417 183.92C105.443 184.94 104.672 186.119 104.105 187.456C103.561 188.793 103.289 190.21 103.289 191.706C103.289 193.247 103.561 194.687 104.105 196.024C104.672 197.361 105.443 198.54 106.417 199.56C107.392 200.58 108.514 201.385 109.783 201.974C111.075 202.541 112.458 202.824 113.931 202.824C115.178 202.824 116.357 202.62 117.467 202.212C118.578 201.804 119.632 201.215 120.629 200.444C120.901 200.217 121.185 200.127 121.479 200.172C121.797 200.217 122.069 200.353 122.295 200.58C122.522 200.807 122.635 201.101 122.635 201.464C122.635 201.645 122.613 201.815 122.567 201.974C122.522 202.11 122.42 202.257 122.261 202.416C121.105 203.481 119.813 204.241 118.385 204.694C116.957 205.125 115.473 205.34 113.931 205.34ZM122.635 201.464L120.051 200.92V194.086H114.747C114.362 194.086 114.045 193.973 113.795 193.746C113.546 193.519 113.421 193.236 113.421 192.896C113.421 192.556 113.546 192.284 113.795 192.08C114.045 191.853 114.362 191.74 114.747 191.74H121.309C121.695 191.74 122.012 191.865 122.261 192.114C122.511 192.341 122.635 192.647 122.635 193.032V201.464ZM136.833 205C136.312 205 135.938 204.785 135.711 204.354C135.484 203.923 135.462 203.504 135.643 203.096L145.639 179.364C145.888 178.752 146.319 178.446 146.931 178.446C147.52 178.446 147.94 178.752 148.189 179.364L158.219 203.13C158.423 203.561 158.389 203.98 158.117 204.388C157.868 204.796 157.505 205 157.029 205C156.757 205 156.508 204.932 156.281 204.796C156.077 204.66 155.907 204.456 155.771 204.184L146.421 181.506H147.475L138.057 204.184C137.944 204.456 137.774 204.66 137.547 204.796C137.343 204.932 137.105 205 136.833 205ZM139.077 198.676L140.097 196.398H153.901L154.921 198.676H139.077Z" fill="#182450"/>
</svg>
