<svg width="21" height="19" fill="none" xmlns="http://www.w3.org/2000/svg"><path fill-rule="evenodd" clip-rule="evenodd" d="M6.225 2C3.805 2 2 3.796 2 6.082c0 1.36.91 3.034 2.65 5.023 1.554 1.777 3.621 3.644 5.85 5.574 2.229-1.93 4.296-3.797 5.85-5.574C18.09 9.116 19 7.443 19 6.081 19 3.796 17.194 2 14.775 2c-1.326 0-2.666.614-3.52 1.597a1 1 0 0 1-1.51 0C8.892 2.614 7.552 2 6.226 2ZM0 6.082C0 2.639 2.754 0 6.225 0c1.55 0 3.09.572 4.275 1.55A6.802 6.802 0 0 1 14.775 0C18.245 0 21 2.639 21 6.082c0 2.149-1.37 4.31-3.145 6.34-1.81 2.07-4.238 4.215-6.703 6.336a1 1 0 0 1-1.304 0c-2.465-2.12-4.892-4.266-6.703-6.336C1.369 10.392 0 8.23 0 6.082Z" fill="#313132"/></svg>